<svg version="1.1" id="Layer_1" xmlns="http://www.w3.org/2000/svg" xmlns:xlink="http://www.w3.org/1999/xlink" x="0px" y="0px"
	 width="100%" viewBox="0 0 1668 472" enable-background="new 0 0 1668 472" xml:space="preserve">
<path fill="#FEFEFE" opacity="1.000000" stroke="none" 
	d="
M1073.000000,473.000000 
	C715.375000,473.000000 358.249939,473.000000 1.062461,473.000000 
	C1.062461,315.726685 1.062461,158.453308 1.062461,1.089976 
	C557.000000,1.089976 1113.000000,1.089976 1668.964844,1.089976 
	C1668.964844,158.417023 1668.964844,315.708527 1668.964844,473.000000 
	C1470.453003,473.000000 1271.976562,473.000000 1073.000000,473.000000 
M633.250549,114.287025 
	C633.250549,103.221611 633.250549,92.156197 633.250549,81.176605 
	C613.704834,78.732758 601.465271,88.538422 592.683655,104.560562 
	C592.375916,104.260063 592.068237,103.959572 591.760498,103.659081 
	C591.760498,97.107620 591.760498,90.556168 591.760498,84.065659 
	C581.111633,84.065659 570.883911,84.065659 560.692017,84.065659 
	C560.692017,125.854286 560.692017,167.280563 560.692017,208.943756 
	C571.650452,208.943756 582.395386,208.943756 593.647034,208.943756 
	C593.647034,206.661987 593.636414,204.533249 593.648743,202.404648 
	C593.768066,181.759003 593.361084,161.092773 594.162720,140.473557 
	C594.959290,119.986992 615.081177,107.595169 633.902893,115.950905 
	C628.234802,130.807343 627.860779,146.191071 629.569885,161.722290 
	C630.731079,172.274261 633.760376,182.257843 640.329407,190.818436 
	C660.104614,216.588882 704.580505,221.302444 729.217590,200.077484 
	C737.638611,192.822739 744.185364,184.157104 745.967651,172.295120 
	C735.456970,172.295120 725.310608,172.166489 715.174744,172.435501 
	C713.675598,172.475281 711.747986,174.087280 710.839844,175.499863 
	C707.537842,180.636444 703.223633,184.301971 697.296021,185.819397 
	C677.659668,190.846191 660.874817,176.518906 662.363892,155.604675 
	C676.442932,155.604675 690.556946,155.604675 704.670959,155.604675 
	C718.934509,155.604675 733.197998,155.604675 747.934265,155.604675 
	C747.626709,148.740875 747.473694,142.601135 747.057434,136.479324 
	C744.360413,96.819794 714.574585,74.247620 674.326782,81.782532 
	C654.786926,85.440659 641.819824,97.503540 633.250549,114.287025 
M212.162918,304.468231 
	C236.613998,295.114410 257.461517,280.622803 273.674011,260.020752 
	C299.033142,227.795578 309.132751,191.166183 302.945068,150.565369 
	C296.576630,108.778656 275.246002,76.054482 239.828140,53.235901 
	C210.521149,34.354347 178.504196,26.826637 143.446548,32.936970 
	C111.021095,38.588528 83.175720,52.291691 60.698467,76.351288 
	C36.840504,101.888794 24.145920,132.221542 22.669630,167.221451 
	C21.548071,193.811356 27.340488,218.817932 40.541943,241.838379 
	C60.443039,276.541504 89.881714,299.140015 128.610901,309.609497 
	C131.960785,310.515015 134.182892,310.359711 136.957474,308.104065 
	C142.706711,303.430054 149.923050,303.106110 153.303192,308.257385 
	C156.794846,313.578613 161.140106,313.114746 165.941452,312.941956 
	C169.768463,312.804291 173.654236,312.843048 177.391785,312.147339 
	C180.267975,311.611938 182.927078,309.980164 185.733261,308.977386 
	C188.136505,308.118591 191.229324,306.145966 192.943146,306.951355 
	C198.962936,309.780334 204.014725,307.154449 209.886719,305.303436 
	C210.413391,305.115387 210.940063,304.927338 212.162918,304.468231 
M1625.198608,378.646576 
	C1636.389648,361.098633 1634.253174,336.196808 1610.475830,325.406982 
	C1604.468506,322.680908 1598.032227,320.798065 1591.659546,319.001831 
	C1581.433960,316.119598 1571.068970,313.734741 1560.821167,310.927002 
	C1556.893433,309.850800 1554.115479,307.399475 1553.772095,302.889221 
	C1553.418823,298.248962 1555.819458,295.302887 1559.552368,293.247406 
	C1573.675659,285.470703 1590.736328,291.961090 1595.749512,306.978149 
	C1606.469604,306.978149 1617.194580,306.978149 1628.110718,306.978149 
	C1627.643677,303.991455 1627.391235,301.332703 1626.796021,298.752991 
	C1624.167725,287.360413 1618.573120,278.183960 1607.580811,272.937195 
	C1590.823853,264.938721 1573.360840,263.883240 1555.499756,267.740021 
	C1538.905273,271.323303 1527.208618,281.018860 1522.492310,297.513977 
	C1518.283203,312.235382 1521.100952,328.494080 1538.781006,336.351776 
	C1544.670776,338.969391 1550.816528,341.100525 1556.993408,342.963135 
	C1568.589966,346.459961 1580.327881,349.486267 1591.936890,352.943970 
	C1596.454224,354.289490 1598.567871,357.816956 1598.368896,362.513855 
	C1598.176636,367.053772 1595.553345,369.684082 1591.377075,371.195526 
	C1582.957275,374.242798 1574.419312,374.039459 1565.814453,372.402618 
	C1557.685669,370.856293 1552.081909,366.588562 1551.092285,357.862518 
	C1550.794556,355.237030 1549.564453,354.639801 1547.163818,354.667694 
	C1538.168213,354.772095 1529.170288,354.678589 1520.174072,354.753845 
	C1519.159546,354.762329 1518.098877,355.265991 1517.150513,355.727081 
	C1515.840454,356.364136 1514.630127,357.790894 1513.353882,357.818726 
	C1504.694458,358.007660 1496.025513,357.793793 1487.368164,358.027679 
	C1485.744751,358.071533 1483.542603,359.123718 1482.655273,360.424927 
	C1475.924927,370.295563 1466.802856,374.132202 1455.073486,371.649323 
	C1441.359985,368.746429 1433.526489,357.633667 1433.683105,340.862183 
	C1462.084961,340.862183 1490.493652,340.862183 1518.872437,340.862183 
	C1518.872437,334.946838 1519.110107,329.456238 1518.827026,323.992645 
	C1518.039429,308.796417 1513.718872,294.789886 1503.228760,283.392700 
	C1488.117310,266.974365 1468.709351,263.696960 1447.841064,266.941956 
	C1427.704468,270.073181 1413.636963,281.597809 1405.859375,300.459686 
	C1400.211182,314.157043 1399.339478,328.528229 1400.606201,343.126923 
	C1401.642212,355.066895 1404.353394,366.477051 1411.770264,376.208435 
	C1428.003052,397.506744 1462.828857,405.280334 1488.451660,393.378967 
	C1502.307129,386.943298 1511.722290,376.366547 1516.850952,362.046722 
	C1517.239014,362.165894 1517.483887,362.177887 1517.509399,362.258942 
	C1517.705688,362.882172 1517.863403,363.517731 1518.025879,364.151337 
	C1522.182495,380.352631 1532.322510,390.995880 1548.327148,395.538300 
	C1562.443848,399.544952 1576.923340,399.841278 1591.420776,397.761719 
	C1604.875000,395.831818 1616.790039,390.998810 1625.198608,378.646576 
M1242.050415,380.446320 
	C1251.690552,390.503876 1263.626465,394.933777 1277.404297,395.211151 
	C1292.647339,395.518036 1305.305786,390.745300 1314.139404,377.174072 
	C1314.091675,385.816162 1313.993164,394.149994 1312.621826,402.268829 
	C1310.737915,413.421417 1303.778687,419.500458 1292.675293,420.712494 
	C1288.723022,421.143951 1284.654175,421.272491 1280.710938,420.855774 
	C1273.688354,420.113556 1267.235718,418.145325 1264.902100,410.180420 
	C1264.689941,409.456024 1263.551758,408.507141 1262.835815,408.500397 
	C1251.598022,408.394348 1240.358887,408.425995 1228.935547,408.425995 
	C1229.776123,422.204590 1236.098267,432.013214 1247.629150,437.711182 
	C1271.023193,449.271240 1295.220825,448.752045 1319.299316,440.125702 
	C1332.340698,435.453552 1340.945923,425.807190 1343.878784,412.135620 
	C1345.611328,404.059357 1346.715698,395.689575 1346.780151,387.441406 
	C1347.078369,349.293274 1346.916260,311.141449 1346.899292,272.990967 
	C1346.898682,271.730835 1346.686401,270.470734 1346.579102,269.279785 
	C1335.915039,269.279785 1325.642822,269.279785 1314.932861,269.279785 
	C1314.932861,274.851898 1314.932861,280.230621 1314.932861,286.010620 
	C1311.377686,282.032471 1308.603027,278.065033 1305.019165,275.064056 
	C1287.745850,260.599976 1257.638916,263.891296 1242.352295,281.810638 
	C1229.438599,296.948425 1225.565552,315.007660 1225.811401,334.340179 
	C1226.026855,351.284393 1229.795044,366.982086 1242.050415,380.446320 
M413.497742,174.256744 
	C417.495026,174.256744 421.544891,174.662781 425.476227,174.153564 
	C430.346313,173.522797 431.993011,175.618591 433.202637,180.016739 
	C435.908081,189.853592 439.260986,199.512360 442.224640,208.848236 
	C455.312134,208.848236 467.695831,208.848236 480.633118,208.848236 
	C460.539673,152.105530 440.611084,95.828300 420.596771,39.309010 
	C408.770538,39.309010 397.122986,39.476799 385.485260,39.212658 
	C381.711090,39.126995 380.097931,40.268085 378.818085,43.887177 
	C363.380127,87.541954 347.730865,131.121979 332.156952,174.728729 
	C328.110352,186.059113 324.133575,197.414444 319.978241,209.172836 
	C331.884491,209.172836 343.200775,209.267609 354.510315,209.034515 
	C355.716370,209.009674 357.496765,207.290680 357.969513,205.981598 
	C361.352356,196.614151 364.587250,187.187744 367.587494,177.691086 
	C368.456757,174.939621 369.733154,174.159119 372.526611,174.190262 
	C385.849243,174.338791 399.174408,174.256775 413.497742,174.256744 
M766.506592,83.716255 
	C762.727478,83.716255 758.948303,83.716255 755.036621,83.716255 
	C755.036621,142.240097 755.036621,200.280502 755.036621,258.450195 
	C765.824402,258.450195 776.366577,258.450195 787.135681,258.450195 
	C787.135681,247.464523 787.135742,236.812515 787.135742,226.160522 
	C787.135742,215.631699 787.135681,205.102859 787.135681,195.562561 
	C792.917053,200.073914 798.124573,205.891800 804.631042,208.899704 
	C828.177490,219.785110 856.676208,208.596832 868.137573,184.487503 
	C876.966309,165.915955 877.480652,146.253754 874.380371,126.367020 
	C872.117676,111.853539 865.601868,99.648643 853.600830,90.683342 
	C834.506104,76.418716 808.180481,77.786034 792.594849,93.988121 
	C790.514221,96.151031 788.732666,98.601639 785.922363,101.993568 
	C785.922363,94.969070 785.922363,89.403839 785.922363,83.716248 
	C779.478516,83.716248 773.490967,83.716248 766.506592,83.716255 
M914.284241,39.977940 
	C904.864075,39.977940 895.443909,39.977940 886.193115,39.977940 
	C886.193115,96.734741 886.193115,152.814102 886.193115,208.929398 
	C897.047485,208.929398 907.633362,208.929398 918.675354,208.929398 
	C918.675354,206.905258 918.669128,205.107086 918.676270,203.308975 
	C918.765808,180.819641 918.459229,158.317032 919.208252,135.849640 
	C919.413574,129.691956 921.762878,123.038902 924.924500,117.671181 
	C930.541870,108.134354 940.368469,106.872856 950.421204,108.272926 
	C957.915100,109.316620 963.241943,115.231743 964.679626,123.653526 
	C965.404175,127.897591 965.630676,132.268814 965.648315,136.584320 
	C965.739685,158.908829 965.690857,181.233887 965.690857,203.558762 
	C965.690857,205.324615 965.690796,207.090469 965.690796,208.850067 
	C977.131531,208.850067 988.013550,208.850067 998.866333,208.850067 
	C998.866333,179.057571 999.100281,149.584946 998.675110,120.121819 
	C998.586792,114.002861 997.158630,107.368843 994.443237,101.921631 
	C986.037109,85.057884 970.673645,80.196014 953.142639,80.565681 
	C939.032898,80.863205 927.588257,86.771103 918.934753,99.543343 
	C918.814575,96.811920 918.685791,95.230225 918.684387,93.648422 
	C918.669617,77.154694 918.650696,60.660862 918.701599,44.167271 
	C918.709290,41.665512 918.874695,39.323490 914.284241,39.977940 
M704.200195,263.499939 
	C704.200195,251.244278 704.200195,238.988602 704.200195,226.775024 
	C692.999939,226.775024 682.456482,226.775024 671.857788,226.775024 
	C671.857788,283.231995 671.857788,339.305634 671.857788,395.562622 
	C682.693420,395.562622 693.262329,395.562622 704.200195,395.562622 
	C704.200195,393.491455 704.200134,391.687561 704.200195,389.883667 
	C704.200439,370.058105 703.896423,350.225403 704.361328,330.410736 
	C704.530273,323.211121 705.593750,315.733154 707.912231,308.950714 
	C711.759399,297.696289 722.670288,292.634247 735.513062,294.747131 
	C745.199707,296.340790 750.185669,303.031952 750.951782,315.546631 
	C751.114563,318.204926 751.195251,320.872375 751.197510,323.535706 
	C751.216553,345.693695 751.208435,367.851654 751.208435,390.009644 
	C751.208435,391.793335 751.208435,393.577057 751.208435,395.588623 
	C762.634827,395.588623 773.534973,395.588623 784.484131,395.588623 
	C784.658752,394.910492 784.882202,394.449371 784.881165,393.988770 
	C784.815186,365.667450 785.008484,337.340698 784.449951,309.028778 
	C784.313049,302.085327 782.787048,294.731354 780.058350,288.353943 
	C769.169861,262.906189 723.830261,258.735596 706.873291,282.919800 
	C706.282288,283.762665 705.469849,284.450287 704.200195,285.810791 
	C704.200195,278.090210 704.200195,271.295013 704.200195,263.499939 
M1116.890259,279.370697 
	C1095.845581,300.869354 1091.453979,326.613770 1098.891479,354.664551 
	C1104.382202,375.373566 1116.780151,390.578674 1138.375854,396.404022 
	C1151.440063,399.928040 1164.662109,399.941498 1177.930908,397.186768 
	C1193.499634,393.954620 1205.149292,385.432007 1213.368652,371.895325 
	C1221.695190,358.182220 1224.743408,343.221893 1223.835083,327.436920 
	C1222.301514,300.783264 1207.689575,268.420105 1168.093994,265.472473 
	C1149.709106,264.103851 1132.151611,266.259308 1116.890259,279.370697 
M1291.264282,211.931320 
	C1301.976685,210.483841 1312.001831,207.279541 1320.549072,200.366394 
	C1349.031128,177.329712 1352.192383,125.486786 1326.768433,97.083481 
	C1310.696655,79.128365 1289.670532,77.129021 1267.612671,79.522331 
	C1247.760498,81.676308 1233.113647,92.049278 1224.182495,109.841202 
	C1213.184692,131.749542 1212.624023,154.349228 1221.913574,176.927994 
	C1228.565552,193.095734 1239.982422,204.708954 1257.197754,209.658463 
	C1268.049805,212.778473 1279.167969,213.209579 1291.264282,211.931320 
M953.394226,271.816040 
	C945.417297,275.265472 938.777527,280.465607 933.757629,287.529968 
	C915.982666,312.544159 914.264282,339.323273 926.367249,366.938721 
	C933.995117,384.343353 947.595459,395.611023 966.634766,398.407166 
	C976.386536,399.839264 986.561523,399.781006 996.405273,398.875610 
	C1011.837097,397.456268 1024.438110,390.166931 1033.692261,377.409424 
	C1050.468872,354.281830 1051.794067,319.183716 1037.049316,294.225311 
	C1028.068237,279.023041 1014.963989,270.051392 997.722961,267.262726 
	C982.870178,264.860321 968.191345,265.688019 953.394226,271.816040 
M1112.320190,200.859879 
	C1114.043091,199.290894 1115.919678,197.859421 1117.465576,196.132004 
	C1136.359497,175.018661 1140.130249,150.328537 1133.154053,123.845497 
	C1127.721436,103.222343 1115.668091,87.560059 1094.168579,81.544746 
	C1078.322388,77.111183 1062.445679,77.368919 1046.834961,83.487503 
	C1038.949219,86.578300 1031.794067,90.597023 1026.181885,96.986374 
	C1009.441101,116.045517 1005.054260,138.429291 1009.546631,162.730530 
	C1012.808350,180.374939 1021.210632,195.068390 1036.728394,205.170395 
	C1047.027344,211.874893 1058.633789,212.163544 1070.151367,212.512512 
	C1085.048096,212.963852 1099.336670,210.414093 1112.320190,200.859879 
M524.498230,342.020508 
	C530.089600,342.020508 535.680908,342.020508 540.823364,342.020508 
	C540.823364,334.238190 541.428955,327.041168 540.703674,319.980896 
	C538.912964,302.550446 531.961243,287.549316 517.408936,277.039032 
	C504.927734,268.024567 490.481018,265.823456 475.571014,267.125763 
	C455.022888,268.920471 439.302490,278.733063 430.019775,297.452698 
	C421.553345,314.526123 421.290192,332.782928 423.898956,351.185547 
	C426.178375,367.264801 433.585754,380.027008 447.471893,389.345978 
	C467.551575,402.821320 498.902802,403.695129 518.739807,389.881470 
	C529.448547,382.424408 537.315735,372.646606 539.904602,358.917908 
	C529.560852,358.917908 519.738831,359.030518 509.922485,358.844696 
	C507.212067,358.793396 505.774139,359.647003 504.486938,361.997986 
	C501.748413,366.999603 497.539001,370.404388 491.993469,372.039825 
	C472.157684,377.889709 455.499969,364.134460 456.106567,342.020508 
	C478.562592,342.020508 501.030823,342.020508 524.498230,342.020508 
M1391.546631,185.193573 
	C1382.845703,182.908066 1379.844116,176.212524 1378.967651,168.321228 
	C1367.674194,168.321228 1356.897461,168.321228 1346.134888,168.321228 
	C1345.386719,186.174255 1356.345825,202.026138 1373.847534,208.014481 
	C1388.794189,213.128540 1404.197021,213.224136 1419.692871,211.206375 
	C1431.901855,209.616623 1442.725830,205.460922 1451.170044,195.847839 
	C1462.921021,182.470306 1463.262695,160.057632 1451.284790,147.474213 
	C1444.545532,140.394348 1435.788208,136.679947 1426.572266,134.164536 
	C1414.558960,130.885666 1402.427734,128.041275 1390.390015,124.849007 
	C1385.703491,123.606178 1382.296875,120.837563 1382.166870,115.500656 
	C1382.063232,111.248825 1385.372925,107.019684 1390.801270,105.796326 
	C1404.186279,102.779785 1420.826416,102.368279 1424.456909,120.626801 
	C1435.203979,120.626801 1445.919434,120.626801 1456.701538,120.626801 
	C1456.411743,118.658455 1456.171387,117.017967 1455.928467,115.377853 
	C1453.464355,98.738579 1444.182251,87.980087 1428.102661,83.045242 
	C1412.970703,78.401245 1397.682861,77.608246 1382.334961,81.623886 
	C1366.335205,85.810104 1354.997803,95.525688 1350.927856,111.784836 
	C1346.887695,127.925232 1350.712280,142.171066 1367.110596,149.770905 
	C1372.357300,152.202515 1377.844727,154.232269 1383.391113,155.875793 
	C1395.322876,159.411499 1407.390015,162.488449 1419.348389,165.937820 
	C1424.079102,167.302399 1427.114624,170.411865 1427.009155,175.707581 
	C1426.902954,181.046036 1423.568359,183.575073 1418.881348,185.093613 
	C1410.035767,187.959412 1401.185669,187.478180 1391.546631,185.193573 
M890.135742,271.242279 
	C866.950867,263.469788 846.310120,265.172211 830.794495,288.648804 
	C830.794495,281.646210 830.794495,276.194672 830.794495,270.627136 
	C820.107849,270.627136 809.729126,270.627136 799.521606,270.627136 
	C799.521606,312.544586 799.521606,354.099670 799.521606,395.523010 
	C810.517029,395.523010 821.107788,395.523010 831.968994,395.523010 
	C831.968994,384.401978 831.867981,373.589264 831.993469,362.779175 
	C832.167419,347.793304 831.938599,332.770752 832.947021,317.835785 
	C833.919128,303.439423 842.477844,295.780640 856.797607,294.610229 
	C869.088013,293.605652 877.329651,300.292908 878.697571,312.553284 
	C879.065918,315.855225 879.080505,319.207764 879.085205,322.537354 
	C879.116638,345.033539 879.101624,367.529785 879.101746,390.026031 
	C879.101746,391.809723 879.101807,393.593414 879.101807,395.459961 
	C890.645508,395.459961 901.682190,395.459961 912.906677,395.459961 
	C912.906677,387.428162 912.969482,379.769623 912.894958,372.112427 
	C912.667908,348.794495 912.838806,325.460083 911.960876,302.165802 
	C911.426758,287.993958 904.459656,277.225616 890.135742,271.242279 
M368.844025,380.496216 
	C368.844025,385.453461 368.844025,390.410736 368.844025,395.574371 
	C380.870331,395.574371 392.443817,395.574371 404.578613,395.574371 
	C404.578613,348.944946 404.578613,302.565308 404.578613,255.823105 
	C421.742126,255.823105 438.346954,255.823105 454.959351,255.823105 
	C454.959351,245.717239 454.959351,235.981552 454.959351,226.215881 
	C409.135803,226.215881 363.576538,226.215881 318.088470,226.215881 
	C318.088470,236.239761 318.088470,245.971664 318.088470,256.153076 
	C335.113098,256.153076 351.847168,256.153076 368.844025,256.153076 
	C368.844025,297.571808 368.844025,338.534821 368.844025,380.496216 
M614.557495,371.574280 
	C596.639404,374.818451 586.249573,367.873840 582.940063,350.154266 
	C582.089294,345.598877 581.592346,340.899078 581.631653,336.271606 
	C581.722046,325.639038 581.653198,314.896088 587.666321,305.384857 
	C592.997009,296.953033 600.930969,294.259827 610.423218,295.121338 
	C618.682800,295.870941 624.315735,300.198456 627.230408,307.950775 
	C628.087158,310.229492 628.646301,312.620087 629.276367,314.739258 
	C640.659058,314.739258 651.693970,314.739258 662.775146,314.739258 
	C662.443176,312.556061 662.165710,310.750488 661.894348,308.944031 
	C659.351501,292.016785 651.660645,278.870422 635.006653,272.291016 
	C624.286072,268.055725 613.095886,266.623444 601.692688,267.279724 
	C575.949829,268.761353 557.779175,283.490326 550.634155,308.290314 
	C546.110718,323.990784 545.824463,339.947540 549.251526,355.736877 
	C553.039001,373.187134 561.346863,388.069763 578.908508,395.112091 
	C596.425537,402.136566 614.527344,402.652283 631.851501,394.825592 
	C650.558838,386.373901 659.547729,370.496216 662.613953,350.346619 
	C651.069214,350.346619 640.143005,350.346619 629.203979,350.346619 
	C627.213074,359.217590 625.498291,368.076538 614.557495,371.574280 
M1087.883667,361.500031 
	C1087.883667,316.079468 1087.883667,270.658905 1087.883667,224.923538 
	C1078.532715,224.923538 1069.715454,225.218994 1060.931274,224.808899 
	C1055.934937,224.575684 1054.867798,226.343842 1054.881226,231.034943 
	C1055.033691,284.178741 1054.977905,337.323151 1054.977905,390.467377 
	C1054.977905,392.105530 1054.977905,393.743683 1054.977905,394.890259 
	C1066.044922,394.890259 1076.729980,394.890259 1087.883667,394.890259 
	C1087.883667,383.731445 1087.883667,373.115753 1087.883667,361.500031 
M1145.222656,93.529434 
	C1145.222656,131.618652 1145.222656,169.707855 1145.222656,207.920074 
	C1156.505249,207.920074 1167.247681,207.920074 1178.328369,207.920074 
	C1178.328369,204.706207 1178.300903,201.743698 1178.332886,198.781799 
	C1178.552490,178.469788 1178.353271,158.140823 1179.157959,137.851776 
	C1179.734131,123.324310 1187.786255,115.323784 1202.146240,113.666275 
	C1207.326782,113.068306 1212.634521,113.570251 1217.901855,113.570251 
	C1217.901855,101.938805 1217.901855,91.045021 1217.901855,80.147980 
	C1198.607544,77.724701 1186.348877,87.486252 1177.530396,103.461174 
	C1177.201904,103.180847 1176.873413,102.900520 1176.544922,102.620201 
	C1176.544922,96.072510 1176.544922,89.524818 1176.544922,82.948242 
	C1165.923340,82.948242 1155.818115,82.948242 1145.222656,82.948242 
	C1145.222656,86.298523 1145.222656,89.420525 1145.222656,93.529434 
M484.567688,83.727417 
	C484.006226,85.350052 482.958435,86.971535 482.954590,88.595482 
	C482.862885,127.261635 482.880829,165.928055 482.892914,204.594421 
	C482.893372,206.036896 483.034882,207.479324 483.108185,208.875092 
	C494.177429,208.875092 504.910614,208.875092 515.939148,208.875092 
	C515.939148,206.949646 515.937012,205.307587 515.939514,203.665527 
	C515.969482,183.832642 515.791321,163.996613 516.088074,144.167709 
	C516.398499,123.422630 526.059875,114.138069 546.783081,113.991516 
	C549.704224,113.970863 552.625610,113.988663 555.641785,113.988663 
	C555.641785,102.924637 555.641785,92.158165 555.641785,80.204781 
	C549.637512,81.016342 543.831604,81.236786 538.337891,82.661064 
	C526.883423,85.630714 520.971741,95.200005 514.015869,104.013214 
	C514.015869,97.308167 514.015869,90.603111 514.015869,83.718124 
	C504.188934,83.718124 494.872864,83.718124 484.567688,83.727417 
M1394.845825,387.389099 
	C1394.845825,347.999634 1394.845825,308.610138 1394.845825,269.325256 
	C1383.323242,269.325256 1372.560547,269.325256 1361.772217,269.325256 
	C1361.772217,311.275177 1361.772217,352.956573 1361.772217,394.543396 
	C1372.937134,394.543396 1383.694580,394.543396 1394.845825,394.543396 
	C1394.845825,392.284576 1394.845825,390.320068 1394.845825,387.389099 
M1361.377930,252.108200 
	C1362.098511,252.767838 1362.812378,253.993042 1363.541016,254.001938 
	C1373.817993,254.127213 1384.096924,254.087082 1394.499268,254.087082 
	C1394.499268,243.799850 1394.499268,233.940720 1394.499268,224.108871 
	C1383.382202,224.108871 1372.610352,224.108871 1361.371338,224.108871 
	C1361.371338,233.270035 1361.371338,242.219559 1361.377930,252.108200 
z"/>
<path fill="#020202" opacity="1.000000" stroke="none" 
	d="
M209.342941,305.437744 
	C204.014725,307.154449 198.962936,309.780334 192.943146,306.951355 
	C191.229324,306.145966 188.136505,308.118591 185.733261,308.977386 
	C182.927078,309.980164 180.267975,311.611938 177.391785,312.147339 
	C173.654236,312.843048 169.768463,312.804291 165.941452,312.941956 
	C161.140106,313.114746 156.794846,313.578613 153.303192,308.257385 
	C149.923050,303.106110 142.706711,303.430054 136.957474,308.104065 
	C134.182892,310.359711 131.960785,310.515015 128.610901,309.609497 
	C89.881714,299.140015 60.443039,276.541504 40.541943,241.838379 
	C27.340488,218.817932 21.548071,193.811356 22.669630,167.221451 
	C24.145920,132.221542 36.840504,101.888794 60.698467,76.351288 
	C83.175720,52.291691 111.021095,38.588528 143.446548,32.936970 
	C178.504196,26.826637 210.521149,34.354347 239.828140,53.235901 
	C275.246002,76.054482 296.576630,108.778656 302.945068,150.565369 
	C309.132751,191.166183 299.033142,227.795578 273.674011,260.020752 
	C257.461517,280.622803 236.613998,295.114410 211.646759,304.333679 
	C210.998047,304.033630 210.865509,303.868103 210.928955,303.427094 
	C216.014618,299.435272 221.365280,296.188568 225.713821,291.920807 
	C244.051987,273.923309 252.444504,251.405457 254.134659,226.187347 
	C255.317001,208.546219 248.532684,193.851379 235.927155,180.633865 
	C229.395920,187.590607 222.461319,193.924271 216.788284,201.236679 
	C204.608887,216.935608 200.413651,234.270508 207.736969,253.646591 
	C209.644821,258.694427 210.412735,264.278961 211.011017,269.693573 
	C212.196304,280.421356 210.453705,290.925262 207.651596,301.289459 
	C207.328400,302.484894 204.692062,304.975616 208.981400,304.983276 
	C209.104324,305.132843 209.342941,305.437744 209.342941,305.437744 
M201.151260,126.756500 
	C214.239716,122.748383 226.912811,117.801529 237.898087,109.406784 
	C242.367081,105.991631 247.251083,102.472679 247.929398,96.323631 
	C248.466568,91.453979 248.037506,86.477737 248.037506,80.860855 
	C240.010727,85.620064 232.660492,90.057861 225.230026,94.357002 
	C219.873489,97.456207 214.159882,98.691101 207.973419,97.261322 
	C199.235870,95.241959 190.456329,93.404114 181.720306,91.378387 
	C164.582184,87.404335 148.239395,88.697151 132.789719,97.885208 
	C130.425369,99.291298 127.049957,99.587479 124.185562,99.455444 
	C114.312180,99.000320 105.301743,95.686348 97.422386,89.725281 
	C93.295250,86.602943 89.555565,82.968460 85.276405,79.248405 
	C85.372269,86.925331 83.828758,94.360344 89.433022,100.477013 
	C92.015518,103.295631 94.311424,106.393730 97.029259,109.068405 
	C106.996315,118.877174 119.367279,124.471413 132.414307,128.787369 
	C144.552261,132.802597 155.685455,138.326065 163.584045,148.912369 
	C164.223633,149.769623 165.247055,150.340500 166.334442,151.246323 
	C174.325089,138.064407 185.255035,129.517654 201.151260,126.756500 
M123.047020,204.487289 
	C115.896492,193.686157 106.335579,185.356277 96.089638,177.539948 
	C84.189178,189.408722 75.842110,202.678925 76.552834,219.550797 
	C76.953621,229.065079 78.406288,238.807968 81.188286,247.895889 
	C88.423386,271.530762 102.609428,290.034027 124.753014,301.856049 
	C125.952919,302.496704 127.338417,302.789703 129.438477,303.524963 
	C128.722916,301.026489 128.293259,299.489777 127.842789,297.959137 
	C123.224724,282.267731 121.854996,266.421295 128.258926,251.025040 
	C135.090195,234.601395 132.480118,219.615784 123.047020,204.487289 
M199.900726,180.887741 
	C195.088303,180.949112 190.263718,181.243576 185.467545,180.993347 
	C182.026352,180.813797 179.391907,181.449982 177.654587,185.056778 
	C189.164429,192.359695 200.783203,194.480316 213.477356,188.260803 
	C228.060501,181.115784 235.352890,169.816010 234.073456,153.527573 
	C233.258636,143.154449 231.533035,132.981674 222.272461,126.153793 
	C221.970932,127.934441 222.268082,129.522675 222.483505,131.121902 
	C223.324036,137.361801 224.743439,143.595123 224.847656,149.849213 
	C225.140427,167.419510 217.678558,176.673416 199.900726,180.887741 
M110.042969,178.461273 
	C126.614899,189.577316 141.709702,189.858521 152.168732,177.789810 
	C147.062469,177.645737 143.143295,177.272522 139.253311,177.471039 
	C122.732109,178.314163 110.851852,170.848526 108.467049,156.830399 
	C107.401978,150.569778 108.267929,143.936081 108.639076,137.493683 
	C108.837257,134.053787 109.847359,130.660690 110.491020,127.246460 
	C109.844704,126.808823 109.198387,126.371193 108.552071,125.933556 
	C107.477486,127.589149 106.026237,129.113754 105.396713,130.924118 
	C103.232780,137.147034 100.488808,143.345428 99.564949,149.782654 
	C98.010750,160.611847 100.219429,170.712616 110.042969,178.461273 
M136.958176,140.993759 
	C135.808228,140.940506 134.633698,140.710236 133.512802,140.866013 
	C129.587418,141.411453 127.286957,143.744858 126.755188,147.655823 
	C126.225174,151.553986 127.808136,154.463470 131.364029,156.136383 
	C134.998901,157.846451 138.242645,156.891434 140.811005,154.030258 
	C144.524704,149.893143 143.279648,144.960312 136.958176,140.993759 
M191.194534,151.211166 
	C194.693314,155.807144 198.287552,157.140366 202.177612,155.014664 
	C205.737289,153.069519 207.470306,150.041031 206.453827,145.908081 
	C205.355118,141.440857 201.572418,139.082855 197.037582,139.896637 
	C192.290588,140.748505 190.113022,144.553009 191.194534,151.211166 
M165.458755,177.560852 
	C166.936752,172.579102 168.414734,167.597366 169.912292,162.549683 
	C165.988358,162.549683 162.599548,162.549683 158.734299,162.549683 
	C160.615646,168.716217 162.371536,174.471558 164.416473,181.174255 
	C164.871857,179.477768 165.041443,178.845947 165.458755,177.560852 
z"/>
<path fill="#020202" opacity="1.000000" stroke="none" 
	d="
M1625.041870,378.973389 
	C1616.790039,390.998810 1604.875000,395.831818 1591.420776,397.761719 
	C1576.923340,399.841278 1562.443848,399.544952 1548.327148,395.538300 
	C1532.322510,390.995880 1522.182495,380.352631 1518.025879,364.151337 
	C1517.863403,363.517731 1517.705688,362.882172 1517.509399,362.258942 
	C1517.483887,362.177887 1517.239014,362.165894 1516.850952,362.046722 
	C1511.722290,376.366547 1502.307129,386.943298 1488.451660,393.378967 
	C1462.828857,405.280334 1428.003052,397.506744 1411.770264,376.208435 
	C1404.353394,366.477051 1401.642212,355.066895 1400.606201,343.126923 
	C1399.339478,328.528229 1400.211182,314.157043 1405.859375,300.459686 
	C1413.636963,281.597809 1427.704468,270.073181 1447.841064,266.941956 
	C1468.709351,263.696960 1488.117310,266.974365 1503.228760,283.392700 
	C1513.718872,294.789886 1518.039429,308.796417 1518.827026,323.992645 
	C1519.110107,329.456238 1518.872437,334.946838 1518.872437,340.862183 
	C1490.493652,340.862183 1462.084961,340.862183 1433.683105,340.862183 
	C1433.526489,357.633667 1441.359985,368.746429 1455.073486,371.649323 
	C1466.802856,374.132202 1475.924927,370.295563 1482.655273,360.424927 
	C1483.542603,359.123718 1485.744751,358.071533 1487.368164,358.027679 
	C1496.025513,357.793793 1504.694458,358.007660 1513.353882,357.818726 
	C1514.630127,357.790894 1515.840454,356.364136 1517.150513,355.727081 
	C1518.098877,355.265991 1519.159546,354.762329 1520.174072,354.753845 
	C1529.170288,354.678589 1538.168213,354.772095 1547.163818,354.667694 
	C1549.564453,354.639801 1550.794556,355.237030 1551.092285,357.862518 
	C1552.081909,366.588562 1557.685669,370.856293 1565.814453,372.402618 
	C1574.419312,374.039459 1582.957275,374.242798 1591.377075,371.195526 
	C1595.553345,369.684082 1598.176636,367.053772 1598.368896,362.513855 
	C1598.567871,357.816956 1596.454224,354.289490 1591.936890,352.943970 
	C1580.327881,349.486267 1568.589966,346.459961 1556.993408,342.963135 
	C1550.816528,341.100525 1544.670776,338.969391 1538.781006,336.351776 
	C1521.100952,328.494080 1518.283203,312.235382 1522.492310,297.513977 
	C1527.208618,281.018860 1538.905273,271.323303 1555.499756,267.740021 
	C1573.360840,263.883240 1590.823853,264.938721 1607.580811,272.937195 
	C1618.573120,278.183960 1624.167725,287.360413 1626.796021,298.752991 
	C1627.391235,301.332703 1627.643677,303.991455 1628.110718,306.978149 
	C1617.194580,306.978149 1606.469604,306.978149 1595.749512,306.978149 
	C1590.736328,291.961090 1573.675659,285.470703 1559.552368,293.247406 
	C1555.819458,295.302887 1553.418823,298.248962 1553.772095,302.889221 
	C1554.115479,307.399475 1556.893433,309.850800 1560.821167,310.927002 
	C1571.068970,313.734741 1581.433960,316.119598 1591.659546,319.001831 
	C1598.032227,320.798065 1604.468506,322.680908 1610.475830,325.406982 
	C1634.253174,336.196808 1636.389648,361.098633 1625.041870,378.973389 
M1478.905273,301.674133 
	C1471.207397,292.870911 1461.397827,290.912415 1450.832642,294.360626 
	C1439.379272,298.098663 1436.035767,308.074097 1434.111328,318.894531 
	C1451.219116,318.894531 1468.035278,318.894531 1486.307861,318.894531 
	C1483.757324,312.777496 1481.561523,307.511383 1478.905273,301.674133 
z"/>
<path fill="#020202" opacity="1.000000" stroke="none" 
	d="
M1241.805420,380.186584 
	C1229.795044,366.982086 1226.026855,351.284393 1225.811401,334.340179 
	C1225.565552,315.007660 1229.438599,296.948425 1242.352295,281.810638 
	C1257.638916,263.891296 1287.745850,260.599976 1305.019165,275.064056 
	C1308.603027,278.065033 1311.377686,282.032471 1314.932861,286.010620 
	C1314.932861,280.230621 1314.932861,274.851898 1314.932861,269.279785 
	C1325.642822,269.279785 1335.915039,269.279785 1346.579102,269.279785 
	C1346.686401,270.470734 1346.898682,271.730835 1346.899292,272.990967 
	C1346.916260,311.141449 1347.078369,349.293274 1346.780151,387.441406 
	C1346.715698,395.689575 1345.611328,404.059357 1343.878784,412.135620 
	C1340.945923,425.807190 1332.340698,435.453552 1319.299316,440.125702 
	C1295.220825,448.752045 1271.023193,449.271240 1247.629150,437.711182 
	C1236.098267,432.013214 1229.776123,422.204590 1228.935547,408.425995 
	C1240.358887,408.425995 1251.598022,408.394348 1262.835815,408.500397 
	C1263.551758,408.507141 1264.689941,409.456024 1264.902100,410.180420 
	C1267.235718,418.145325 1273.688354,420.113556 1280.710938,420.855774 
	C1284.654175,421.272491 1288.723022,421.143951 1292.675293,420.712494 
	C1303.778687,419.500458 1310.737915,413.421417 1312.621826,402.268829 
	C1313.993164,394.149994 1314.091675,385.816162 1314.139404,377.174072 
	C1305.305786,390.745300 1292.647339,395.518036 1277.404297,395.211151 
	C1263.626465,394.933777 1251.690552,390.503876 1241.805420,380.186584 
M1313.988037,321.770996 
	C1313.642578,319.976715 1313.358887,318.167969 1312.941895,316.390503 
	C1310.151001,304.495819 1301.057129,296.006714 1290.158081,295.083374 
	C1277.017578,293.970215 1267.485107,299.192749 1263.233032,310.916168 
	C1258.382202,324.290680 1258.158081,338.015778 1263.185425,351.443604 
	C1267.196777,362.157959 1276.085449,367.957947 1287.015137,367.808258 
	C1298.118286,367.656219 1307.254639,361.415283 1311.340454,351.128021 
	C1315.003540,341.905182 1315.002930,332.315552 1313.988037,321.770996 
z"/>
<path fill="#020202" opacity="1.000000" stroke="none" 
	d="
M412.998230,174.256744 
	C399.174408,174.256775 385.849243,174.338791 372.526611,174.190262 
	C369.733154,174.159119 368.456757,174.939621 367.587494,177.691086 
	C364.587250,187.187744 361.352356,196.614151 357.969513,205.981598 
	C357.496765,207.290680 355.716370,209.009674 354.510315,209.034515 
	C343.200775,209.267609 331.884491,209.172836 319.978241,209.172836 
	C324.133575,197.414444 328.110352,186.059113 332.156952,174.728729 
	C347.730865,131.121979 363.380127,87.541954 378.818085,43.887177 
	C380.097931,40.268085 381.711090,39.126995 385.485260,39.212658 
	C397.122986,39.476799 408.770538,39.309010 420.596771,39.309010 
	C440.611084,95.828300 460.539673,152.105530 480.633118,208.848236 
	C467.695831,208.848236 455.312134,208.848236 442.224640,208.848236 
	C439.260986,199.512360 435.908081,189.853592 433.202637,180.016739 
	C431.993011,175.618591 430.346313,173.522797 425.476227,174.153564 
	C421.544891,174.662781 417.495026,174.256744 412.998230,174.256744 
M388.007690,115.505554 
	C384.849365,125.206825 381.691040,134.908096 378.453674,144.852219 
	C393.019379,144.852219 406.935669,144.852219 421.343842,144.852219 
	C414.378143,122.883118 407.510345,101.222878 400.252808,78.333466 
	C395.978516,91.237656 392.086914,102.986420 388.007690,115.505554 
z"/>
<path fill="#010101" opacity="1.000000" stroke="none" 
	d="
M767.005005,83.716248 
	C773.490967,83.716248 779.478516,83.716248 785.922363,83.716248 
	C785.922363,89.403839 785.922363,94.969070 785.922363,101.993568 
	C788.732666,98.601639 790.514221,96.151031 792.594849,93.988121 
	C808.180481,77.786034 834.506104,76.418716 853.600830,90.683342 
	C865.601868,99.648643 872.117676,111.853539 874.380371,126.367020 
	C877.480652,146.253754 876.966309,165.915955 868.137573,184.487503 
	C856.676208,208.596832 828.177490,219.785110 804.631042,208.899704 
	C798.124573,205.891800 792.917053,200.073914 787.135681,195.562561 
	C787.135681,205.102859 787.135742,215.631699 787.135742,226.160522 
	C787.135742,236.812515 787.135681,247.464523 787.135681,258.450195 
	C776.366577,258.450195 765.824402,258.450195 755.036621,258.450195 
	C755.036621,200.280502 755.036621,142.240097 755.036621,83.716255 
	C758.948303,83.716255 762.727478,83.716255 767.005005,83.716248 
M797.563049,114.988792 
	C795.194763,118.155968 792.013367,120.999199 790.600098,124.546799 
	C784.732605,139.275284 784.214417,154.425003 789.739136,169.329758 
	C793.352051,179.076721 801.091919,184.222794 811.479553,185.031494 
	C822.414978,185.882843 831.187500,182.074219 836.338867,172.063583 
	C843.566284,158.018524 843.991333,143.332016 839.028015,128.526093 
	C832.859375,110.124214 814.447998,103.917938 797.563049,114.988792 
z"/>
<path fill="#020202" opacity="1.000000" stroke="none" 
	d="
M914.758057,39.978058 
	C918.874695,39.323490 918.709290,41.665512 918.701599,44.167271 
	C918.650696,60.660862 918.669617,77.154694 918.684387,93.648422 
	C918.685791,95.230225 918.814575,96.811920 918.934753,99.543343 
	C927.588257,86.771103 939.032898,80.863205 953.142639,80.565681 
	C970.673645,80.196014 986.037109,85.057884 994.443237,101.921631 
	C997.158630,107.368843 998.586792,114.002861 998.675110,120.121819 
	C999.100281,149.584946 998.866333,179.057571 998.866333,208.850067 
	C988.013550,208.850067 977.131531,208.850067 965.690796,208.850067 
	C965.690796,207.090469 965.690857,205.324615 965.690857,203.558762 
	C965.690857,181.233887 965.739685,158.908829 965.648315,136.584320 
	C965.630676,132.268814 965.404175,127.897591 964.679626,123.653526 
	C963.241943,115.231743 957.915100,109.316620 950.421204,108.272926 
	C940.368469,106.872856 930.541870,108.134354 924.924500,117.671181 
	C921.762878,123.038902 919.413574,129.691956 919.208252,135.849640 
	C918.459229,158.317032 918.765808,180.819641 918.676270,203.308975 
	C918.669128,205.107086 918.675354,206.905258 918.675354,208.929398 
	C907.633362,208.929398 897.047485,208.929398 886.193115,208.929398 
	C886.193115,152.814102 886.193115,96.734741 886.193115,39.977940 
	C895.443909,39.977940 904.864075,39.977940 914.758057,39.978058 
z"/>
<path fill="#020202" opacity="1.000000" stroke="none" 
	d="
M704.200195,263.999878 
	C704.200195,271.295013 704.200195,278.090210 704.200195,285.810791 
	C705.469849,284.450287 706.282288,283.762665 706.873291,282.919800 
	C723.830261,258.735596 769.169861,262.906189 780.058350,288.353943 
	C782.787048,294.731354 784.313049,302.085327 784.449951,309.028778 
	C785.008484,337.340698 784.815186,365.667450 784.881165,393.988770 
	C784.882202,394.449371 784.658752,394.910492 784.484131,395.588623 
	C773.534973,395.588623 762.634827,395.588623 751.208435,395.588623 
	C751.208435,393.577057 751.208435,391.793335 751.208435,390.009644 
	C751.208435,367.851654 751.216553,345.693695 751.197510,323.535706 
	C751.195251,320.872375 751.114563,318.204926 750.951782,315.546631 
	C750.185669,303.031952 745.199707,296.340790 735.513062,294.747131 
	C722.670288,292.634247 711.759399,297.696289 707.912231,308.950714 
	C705.593750,315.733154 704.530273,323.211121 704.361328,330.410736 
	C703.896423,350.225403 704.200439,370.058105 704.200195,389.883667 
	C704.200134,391.687561 704.200195,393.491455 704.200195,395.562622 
	C693.262329,395.562622 682.693420,395.562622 671.857788,395.562622 
	C671.857788,339.305634 671.857788,283.231995 671.857788,226.775024 
	C682.456482,226.775024 692.999939,226.775024 704.200195,226.775024 
	C704.200195,238.988602 704.200195,251.244278 704.200195,263.999878 
z"/>
<path fill="#020202" opacity="1.000000" stroke="none" 
	d="
M1117.164429,279.144806 
	C1132.151611,266.259308 1149.709106,264.103851 1168.093994,265.472473 
	C1207.689575,268.420105 1222.301514,300.783264 1223.835083,327.436920 
	C1224.743408,343.221893 1221.695190,358.182220 1213.368652,371.895325 
	C1205.149292,385.432007 1193.499634,393.954620 1177.930908,397.186768 
	C1164.662109,399.941498 1151.440063,399.928040 1138.375854,396.404022 
	C1116.780151,390.578674 1104.382202,375.373566 1098.891479,354.664551 
	C1091.453979,326.613770 1095.845581,300.869354 1117.164429,279.144806 
M1133.021240,311.652924 
	C1128.471802,325.884857 1128.257446,340.161530 1133.647949,354.135040 
	C1137.865601,365.067596 1146.201782,370.927765 1158.089600,371.369019 
	C1169.264160,371.783783 1178.484009,368.098572 1183.808105,357.818054 
	C1191.242065,343.463257 1191.038940,328.235962 1186.680054,313.202759 
	C1182.884888,300.113800 1173.840454,293.534332 1161.337402,292.995789 
	C1147.831421,292.414032 1138.878052,298.118805 1133.021240,311.652924 
z"/>
<path fill="#030303" opacity="1.000000" stroke="none" 
	d="
M633.852295,115.355896 
	C641.819824,97.503540 654.786926,85.440659 674.326782,81.782532 
	C714.574585,74.247620 744.360413,96.819794 747.057434,136.479324 
	C747.473694,142.601135 747.626709,148.740875 747.934265,155.604675 
	C733.197998,155.604675 718.934509,155.604675 704.670959,155.604675 
	C690.556946,155.604675 676.442932,155.604675 662.363892,155.604675 
	C660.874817,176.518906 677.659668,190.846191 697.296021,185.819397 
	C703.223633,184.301971 707.537842,180.636444 710.839844,175.499863 
	C711.747986,174.087280 713.675598,172.475281 715.174744,172.435501 
	C725.310608,172.166489 735.456970,172.295120 745.967651,172.295120 
	C744.185364,184.157104 737.638611,192.822739 729.217590,200.077484 
	C704.580505,221.302444 660.104614,216.588882 640.329407,190.818436 
	C633.760376,182.257843 630.731079,172.274261 629.569885,161.722290 
	C627.860779,146.191071 628.234802,130.807343 633.872070,115.612373 
	C633.841309,115.273842 633.852295,115.355896 633.852295,115.355896 
M705.453003,133.936050 
	C708.032227,133.936050 710.611450,133.936050 713.205750,133.936050 
	C712.462524,117.367073 702.376770,107.073372 687.736694,107.378731 
	C673.536133,107.674927 662.940674,118.996124 663.159180,133.936050 
	C676.924011,133.936050 690.695190,133.936050 705.453003,133.936050 
z"/>
<path fill="#020202" opacity="1.000000" stroke="none" 
	d="
M1290.814453,211.964844 
	C1279.167969,213.209579 1268.049805,212.778473 1257.197754,209.658463 
	C1239.982422,204.708954 1228.565552,193.095734 1221.913574,176.927994 
	C1212.624023,154.349228 1213.184692,131.749542 1224.182495,109.841202 
	C1233.113647,92.049278 1247.760498,81.676308 1267.612671,79.522331 
	C1289.670532,77.129021 1310.696655,79.128365 1326.768433,97.083481 
	C1352.192383,125.486786 1349.031128,177.329712 1320.549072,200.366394 
	C1312.001831,207.279541 1301.976685,210.483841 1290.814453,211.964844 
M1309.101929,138.737503 
	C1307.932129,133.575348 1307.398193,128.159836 1305.463379,123.302429 
	C1301.085938,112.313759 1292.417480,106.740173 1280.664795,106.479462 
	C1269.976685,106.242378 1260.673706,109.783562 1255.723877,119.807327 
	C1247.267822,136.931305 1247.204834,154.536987 1255.776855,171.619217 
	C1261.193481,182.413452 1271.186523,185.709229 1282.684814,184.844528 
	C1294.155029,183.981918 1301.721924,177.674271 1305.908569,167.198242 
	C1309.445557,158.347992 1309.803223,149.063538 1309.101929,138.737503 
z"/>
<path fill="#020202" opacity="1.000000" stroke="none" 
	d="
M953.720398,271.616852 
	C968.191345,265.688019 982.870178,264.860321 997.722961,267.262726 
	C1014.963989,270.051392 1028.068237,279.023041 1037.049316,294.225311 
	C1051.794067,319.183716 1050.468872,354.281830 1033.692261,377.409424 
	C1024.438110,390.166931 1011.837097,397.456268 996.405273,398.875610 
	C986.561523,399.781006 976.386536,399.839264 966.634766,398.407166 
	C947.595459,395.611023 933.995117,384.343353 926.367249,366.938721 
	C914.264282,339.323273 915.982666,312.544159 933.757629,287.529968 
	C938.777527,280.465607 945.417297,275.265472 953.720398,271.616852 
M966.151428,367.464844 
	C981.888977,377.192322 1000.530762,373.131989 1007.841370,357.322571 
	C1015.150513,341.516449 1014.887817,324.929993 1007.880066,308.972198 
	C1003.377625,298.719269 994.560547,294.079987 983.446594,293.957458 
	C972.191650,293.833344 963.284668,298.228607 958.185547,308.511902 
	C952.016357,320.953369 951.960022,334.164124 954.538635,347.499756 
	C956.028992,355.207184 959.376831,361.942780 966.151428,367.464844 
z"/>
<path fill="#020202" opacity="1.000000" stroke="none" 
	d="
M1112.033203,201.074463 
	C1099.336670,210.414093 1085.048096,212.963852 1070.151367,212.512512 
	C1058.633789,212.163544 1047.027344,211.874893 1036.728394,205.170395 
	C1021.210632,195.068390 1012.808350,180.374939 1009.546631,162.730530 
	C1005.054260,138.429291 1009.441101,116.045517 1026.181885,96.986374 
	C1031.794067,90.597023 1038.949219,86.578300 1046.834961,83.487503 
	C1062.445679,77.368919 1078.322388,77.111183 1094.168579,81.544746 
	C1115.668091,87.560059 1127.721436,103.222343 1133.154053,123.845497 
	C1140.130249,150.328537 1136.359497,175.018661 1117.465576,196.132004 
	C1115.919678,197.859421 1114.043091,199.290894 1112.033203,201.074463 
M1055.092163,112.508148 
	C1052.789062,115.096802 1049.876709,117.359001 1048.285400,120.328987 
	C1040.101440,135.603455 1040.331299,151.564468 1045.590942,167.622116 
	C1047.807007,174.387711 1051.995483,179.399231 1058.981934,182.430145 
	C1075.388062,189.547729 1093.030762,182.624771 1098.686523,165.747391 
	C1103.363525,151.790909 1103.231201,137.595215 1097.968262,123.742172 
	C1094.856201,115.550865 1089.157837,109.566109 1080.355713,107.622208 
	C1071.632324,105.695694 1062.932861,105.278221 1055.092163,112.508148 
z"/>
<path fill="#020202" opacity="1.000000" stroke="none" 
	d="
M523.998657,342.020508 
	C501.030823,342.020508 478.562592,342.020508 456.106567,342.020508 
	C455.499969,364.134460 472.157684,377.889709 491.993469,372.039825 
	C497.539001,370.404388 501.748413,366.999603 504.486938,361.997986 
	C505.774139,359.647003 507.212067,358.793396 509.922485,358.844696 
	C519.738831,359.030518 529.560852,358.917908 539.904602,358.917908 
	C537.315735,372.646606 529.448547,382.424408 518.739807,389.881470 
	C498.902802,403.695129 467.551575,402.821320 447.471893,389.345978 
	C433.585754,380.027008 426.178375,367.264801 423.898956,351.185547 
	C421.290192,332.782928 421.553345,314.526123 430.019775,297.452698 
	C439.302490,278.733063 455.022888,268.920471 475.571014,267.125763 
	C490.481018,265.823456 504.927734,268.024567 517.408936,277.039032 
	C531.961243,287.549316 538.912964,302.550446 540.703674,319.980896 
	C541.428955,327.041168 540.823364,334.238190 540.823364,342.020508 
	C535.680908,342.020508 530.089600,342.020508 523.998657,342.020508 
M467.066406,298.465485 
	C460.545746,304.090454 457.598022,311.402740 456.665588,319.945251 
	C473.678101,319.945251 490.371033,319.945251 507.074005,319.945251 
	C506.251770,298.124939 486.379913,287.244263 467.066406,298.465485 
z"/>
<path fill="#020202" opacity="1.000000" stroke="none" 
	d="
M1391.917969,185.352951 
	C1401.185669,187.478180 1410.035767,187.959412 1418.881348,185.093613 
	C1423.568359,183.575073 1426.902954,181.046036 1427.009155,175.707581 
	C1427.114624,170.411865 1424.079102,167.302399 1419.348389,165.937820 
	C1407.390015,162.488449 1395.322876,159.411499 1383.391113,155.875793 
	C1377.844727,154.232269 1372.357300,152.202515 1367.110596,149.770905 
	C1350.712280,142.171066 1346.887695,127.925232 1350.927856,111.784836 
	C1354.997803,95.525688 1366.335205,85.810104 1382.334961,81.623886 
	C1397.682861,77.608246 1412.970703,78.401245 1428.102661,83.045242 
	C1444.182251,87.980087 1453.464355,98.738579 1455.928467,115.377853 
	C1456.171387,117.017967 1456.411743,118.658455 1456.701538,120.626801 
	C1445.919434,120.626801 1435.203979,120.626801 1424.456909,120.626801 
	C1420.826416,102.368279 1404.186279,102.779785 1390.801270,105.796326 
	C1385.372925,107.019684 1382.063232,111.248825 1382.166870,115.500656 
	C1382.296875,120.837563 1385.703491,123.606178 1390.390015,124.849007 
	C1402.427734,128.041275 1414.558960,130.885666 1426.572266,134.164536 
	C1435.788208,136.679947 1444.545532,140.394348 1451.284790,147.474213 
	C1463.262695,160.057632 1462.921021,182.470306 1451.170044,195.847839 
	C1442.725830,205.460922 1431.901855,209.616623 1419.692871,211.206375 
	C1404.197021,213.224136 1388.794189,213.128540 1373.847534,208.014481 
	C1356.345825,202.026138 1345.386719,186.174255 1346.134888,168.321228 
	C1356.897461,168.321228 1367.674194,168.321228 1378.967651,168.321228 
	C1379.844116,176.212524 1382.845703,182.908066 1391.917969,185.352951 
z"/>
<path fill="#030303" opacity="1.000000" stroke="none" 
	d="
M890.466431,271.433380 
	C904.459656,277.225616 911.426758,287.993958 911.960876,302.165802 
	C912.838806,325.460083 912.667908,348.794495 912.894958,372.112427 
	C912.969482,379.769623 912.906677,387.428162 912.906677,395.459961 
	C901.682190,395.459961 890.645508,395.459961 879.101807,395.459961 
	C879.101807,393.593414 879.101746,391.809723 879.101746,390.026031 
	C879.101624,367.529785 879.116638,345.033539 879.085205,322.537354 
	C879.080505,319.207764 879.065918,315.855225 878.697571,312.553284 
	C877.329651,300.292908 869.088013,293.605652 856.797607,294.610229 
	C842.477844,295.780640 833.919128,303.439423 832.947021,317.835785 
	C831.938599,332.770752 832.167419,347.793304 831.993469,362.779175 
	C831.867981,373.589264 831.968994,384.401978 831.968994,395.523010 
	C821.107788,395.523010 810.517029,395.523010 799.521606,395.523010 
	C799.521606,354.099670 799.521606,312.544586 799.521606,270.627136 
	C809.729126,270.627136 820.107849,270.627136 830.794495,270.627136 
	C830.794495,276.194672 830.794495,281.646210 830.794495,288.648804 
	C846.310120,265.172211 866.950867,263.469788 890.466431,271.433380 
z"/>
<path fill="#000000" opacity="1.000000" stroke="none" 
	d="
M368.844025,379.997040 
	C368.844025,338.534821 368.844025,297.571808 368.844025,256.153076 
	C351.847168,256.153076 335.113098,256.153076 318.088470,256.153076 
	C318.088470,245.971664 318.088470,236.239761 318.088470,226.215881 
	C363.576538,226.215881 409.135803,226.215881 454.959351,226.215881 
	C454.959351,235.981552 454.959351,245.717239 454.959351,255.823105 
	C438.346954,255.823105 421.742126,255.823105 404.578613,255.823105 
	C404.578613,302.565308 404.578613,348.944946 404.578613,395.574371 
	C392.443817,395.574371 380.870331,395.574371 368.844025,395.574371 
	C368.844025,390.410736 368.844025,385.453461 368.844025,379.997040 
z"/>
<path fill="#020202" opacity="1.000000" stroke="none" 
	d="
M614.946228,371.425293 
	C625.498291,368.076538 627.213074,359.217590 629.203979,350.346619 
	C640.143005,350.346619 651.069214,350.346619 662.613953,350.346619 
	C659.547729,370.496216 650.558838,386.373901 631.851501,394.825592 
	C614.527344,402.652283 596.425537,402.136566 578.908508,395.112091 
	C561.346863,388.069763 553.039001,373.187134 549.251526,355.736877 
	C545.824463,339.947540 546.110718,323.990784 550.634155,308.290314 
	C557.779175,283.490326 575.949829,268.761353 601.692688,267.279724 
	C613.095886,266.623444 624.286072,268.055725 635.006653,272.291016 
	C651.660645,278.870422 659.351501,292.016785 661.894348,308.944031 
	C662.165710,310.750488 662.443176,312.556061 662.775146,314.739258 
	C651.693970,314.739258 640.659058,314.739258 629.276367,314.739258 
	C628.646301,312.620087 628.087158,310.229492 627.230408,307.950775 
	C624.315735,300.198456 618.682800,295.870941 610.423218,295.121338 
	C600.930969,294.259827 592.997009,296.953033 587.666321,305.384857 
	C581.653198,314.896088 581.722046,325.639038 581.631653,336.271606 
	C581.592346,340.899078 582.089294,345.598877 582.940063,350.154266 
	C586.249573,367.873840 596.639404,374.818451 614.946228,371.425293 
z"/>
<path fill="#020202" opacity="1.000000" stroke="none" 
	d="
M1087.883667,362.000061 
	C1087.883667,373.115753 1087.883667,383.731445 1087.883667,394.890259 
	C1076.729980,394.890259 1066.044922,394.890259 1054.977905,394.890259 
	C1054.977905,393.743683 1054.977905,392.105530 1054.977905,390.467377 
	C1054.977905,337.323151 1055.033691,284.178741 1054.881226,231.034943 
	C1054.867798,226.343842 1055.934937,224.575684 1060.931274,224.808899 
	C1069.715454,225.218994 1078.532715,224.923538 1087.883667,224.923538 
	C1087.883667,270.658905 1087.883667,316.079468 1087.883667,362.000061 
z"/>
<path fill="#050505" opacity="1.000000" stroke="none" 
	d="
M633.551392,114.821457 
	C633.852295,115.355896 633.841309,115.273842 633.841187,115.251953 
	C615.081177,107.595169 594.959290,119.986992 594.162720,140.473557 
	C593.361084,161.092773 593.768066,181.759003 593.648743,202.404648 
	C593.636414,204.533249 593.647034,206.661987 593.647034,208.943756 
	C582.395386,208.943756 571.650452,208.943756 560.692017,208.943756 
	C560.692017,167.280563 560.692017,125.854286 560.692017,84.065659 
	C570.883911,84.065659 581.111633,84.065659 591.760498,84.065659 
	C591.760498,90.556168 591.760498,97.107620 591.760498,103.659081 
	C592.068237,103.959572 592.375916,104.260063 592.683655,104.560562 
	C601.465271,88.538422 613.704834,78.732758 633.250549,81.176605 
	C633.250549,92.156197 633.250549,103.221611 633.551392,114.821457 
z"/>
<path fill="#030303" opacity="1.000000" stroke="none" 
	d="
M1145.222656,93.035980 
	C1145.222656,89.420525 1145.222656,86.298523 1145.222656,82.948242 
	C1155.818115,82.948242 1165.923340,82.948242 1176.544922,82.948242 
	C1176.544922,89.524818 1176.544922,96.072510 1176.544922,102.620201 
	C1176.873413,102.900520 1177.201904,103.180847 1177.530396,103.461174 
	C1186.348877,87.486252 1198.607544,77.724701 1217.901855,80.147980 
	C1217.901855,91.045021 1217.901855,101.938805 1217.901855,113.570251 
	C1212.634521,113.570251 1207.326782,113.068306 1202.146240,113.666275 
	C1187.786255,115.323784 1179.734131,123.324310 1179.157959,137.851776 
	C1178.353271,158.140823 1178.552490,178.469788 1178.332886,198.781799 
	C1178.300903,201.743698 1178.328369,204.706207 1178.328369,207.920074 
	C1167.247681,207.920074 1156.505249,207.920074 1145.222656,207.920074 
	C1145.222656,169.707855 1145.222656,131.618652 1145.222656,93.035980 
z"/>
<path fill="#010101" opacity="1.000000" stroke="none" 
	d="
M485.062256,83.722771 
	C494.872864,83.718124 504.188934,83.718124 514.015869,83.718124 
	C514.015869,90.603111 514.015869,97.308167 514.015869,104.013214 
	C520.971741,95.200005 526.883423,85.630714 538.337891,82.661064 
	C543.831604,81.236786 549.637512,81.016342 555.641785,80.204781 
	C555.641785,92.158165 555.641785,102.924637 555.641785,113.988663 
	C552.625610,113.988663 549.704224,113.970863 546.783081,113.991516 
	C526.059875,114.138069 516.398499,123.422630 516.088074,144.167709 
	C515.791321,163.996613 515.969482,183.832642 515.939514,203.665527 
	C515.937012,205.307587 515.939148,206.949646 515.939148,208.875092 
	C504.910614,208.875092 494.177429,208.875092 483.108185,208.875092 
	C483.034882,207.479324 482.893372,206.036896 482.892914,204.594421 
	C482.880829,165.928055 482.862885,127.261635 482.954590,88.595482 
	C482.958435,86.971535 484.006226,85.350052 485.062256,83.722771 
z"/>
<path fill="#060606" opacity="1.000000" stroke="none" 
	d="
M1394.845825,387.872314 
	C1394.845825,390.320068 1394.845825,392.284576 1394.845825,394.543396 
	C1383.694580,394.543396 1372.937134,394.543396 1361.772217,394.543396 
	C1361.772217,352.956573 1361.772217,311.275177 1361.772217,269.325256 
	C1372.560547,269.325256 1383.323242,269.325256 1394.845825,269.325256 
	C1394.845825,308.610138 1394.845825,347.999634 1394.845825,387.872314 
z"/>
<path fill="#050505" opacity="1.000000" stroke="none" 
	d="
M1361.374634,251.638641 
	C1361.371338,242.219559 1361.371338,233.270035 1361.371338,224.108871 
	C1372.610352,224.108871 1383.382202,224.108871 1394.499268,224.108871 
	C1394.499268,233.940720 1394.499268,243.799850 1394.499268,254.087082 
	C1384.096924,254.087082 1373.817993,254.127213 1363.541016,254.001938 
	C1362.812378,253.993042 1362.098511,252.767838 1361.374634,251.638641 
z"/>
<path fill="#020202" opacity="1.000000" stroke="none" 
	d="
M211.298676,304.469238 
	C210.940063,304.927338 210.413391,305.115387 209.614838,305.370605 
	C209.342941,305.437744 209.104324,305.132843 209.081573,304.703308 
	C209.616882,304.083374 210.174911,303.892975 210.732956,303.702545 
	C210.865509,303.868103 210.998047,304.033630 211.298676,304.469238 
z"/>
<path fill="#FCFCFC" opacity="1.000000" stroke="none" 
	d="
M200.756561,126.846542 
	C185.255035,129.517654 174.325089,138.064407 166.334442,151.246323 
	C165.247055,150.340500 164.223633,149.769623 163.584045,148.912369 
	C155.685455,138.326065 144.552261,132.802597 132.414307,128.787369 
	C119.367279,124.471413 106.996315,118.877174 97.029259,109.068405 
	C94.311424,106.393730 92.015518,103.295631 89.433022,100.477013 
	C83.828758,94.360344 85.372269,86.925331 85.276405,79.248405 
	C89.555565,82.968460 93.295250,86.602943 97.422386,89.725281 
	C105.301743,95.686348 114.312180,99.000320 124.185562,99.455444 
	C127.049957,99.587479 130.425369,99.291298 132.789719,97.885208 
	C148.239395,88.697151 164.582184,87.404335 181.720306,91.378387 
	C190.456329,93.404114 199.235870,95.241959 207.973419,97.261322 
	C214.159882,98.691101 219.873489,97.456207 225.230026,94.357002 
	C232.660492,90.057861 240.010727,85.620064 248.037506,80.860855 
	C248.037506,86.477737 248.466568,91.453979 247.929398,96.323631 
	C247.251083,102.472679 242.367081,105.991631 237.898087,109.406784 
	C226.912811,117.801529 214.239716,122.748383 200.756561,126.846542 
z"/>
<path fill="#FDFDFD" opacity="1.000000" stroke="none" 
	d="
M123.262939,204.778717 
	C132.480118,219.615784 135.090195,234.601395 128.258926,251.025040 
	C121.854996,266.421295 123.224724,282.267731 127.842789,297.959137 
	C128.293259,299.489777 128.722916,301.026489 129.438477,303.524963 
	C127.338417,302.789703 125.952919,302.496704 124.753014,301.856049 
	C102.609428,290.034027 88.423386,271.530762 81.188286,247.895889 
	C78.406288,238.807968 76.953621,229.065079 76.552834,219.550797 
	C75.842110,202.678925 84.189178,189.408722 96.089638,177.539948 
	C106.335579,185.356277 115.896492,193.686157 123.262939,204.778717 
z"/>
<path fill="#FDFDFD" opacity="1.000000" stroke="none" 
	d="
M210.928955,303.427094 
	C210.174911,303.892975 209.616882,304.083374 208.958649,304.553772 
	C204.692062,304.975616 207.328400,302.484894 207.651596,301.289459 
	C210.453705,290.925262 212.196304,280.421356 211.011017,269.693573 
	C210.412735,264.278961 209.644821,258.694427 207.736969,253.646591 
	C200.413651,234.270508 204.608887,216.935608 216.788284,201.236679 
	C222.461319,193.924271 229.395920,187.590607 235.927155,180.633865 
	C248.532684,193.851379 255.317001,208.546219 254.134659,226.187347 
	C252.444504,251.405457 244.051987,273.923309 225.713821,291.920807 
	C221.365280,296.188568 216.014618,299.435272 210.928955,303.427094 
z"/>
<path fill="#F8F8F8" opacity="1.000000" stroke="none" 
	d="
M200.334473,180.809845 
	C217.678558,176.673416 225.140427,167.419510 224.847656,149.849213 
	C224.743439,143.595123 223.324036,137.361801 222.483505,131.121902 
	C222.268082,129.522675 221.970932,127.934441 222.272461,126.153793 
	C231.533035,132.981674 233.258636,143.154449 234.073456,153.527573 
	C235.352890,169.816010 228.060501,181.115784 213.477356,188.260803 
	C200.783203,194.480316 189.164429,192.359695 177.654587,185.056778 
	C179.391907,181.449982 182.026352,180.813797 185.467545,180.993347 
	C190.263718,181.243576 195.088303,180.949112 200.334473,180.809845 
z"/>
<path fill="#F5F5F5" opacity="1.000000" stroke="none" 
	d="
M109.750122,178.255493 
	C100.219429,170.712616 98.010750,160.611847 99.564949,149.782654 
	C100.488808,143.345428 103.232780,137.147034 105.396713,130.924118 
	C106.026237,129.113754 107.477486,127.589149 108.552071,125.933556 
	C109.198387,126.371193 109.844704,126.808823 110.491020,127.246460 
	C109.847359,130.660690 108.837257,134.053787 108.639076,137.493683 
	C108.267929,143.936081 107.401978,150.569778 108.467049,156.830399 
	C110.851852,170.848526 122.732109,178.314163 139.253311,177.471039 
	C143.143295,177.272522 147.062469,177.645737 152.168732,177.789810 
	C141.709702,189.858521 126.614899,189.577316 109.750122,178.255493 
z"/>
<path fill="#F8F8F8" opacity="1.000000" stroke="none" 
	d="
M137.353638,141.081451 
	C143.279648,144.960312 144.524704,149.893143 140.811005,154.030258 
	C138.242645,156.891434 134.998901,157.846451 131.364029,156.136383 
	C127.808136,154.463470 126.225174,151.553986 126.755188,147.655823 
	C127.286957,143.744858 129.587418,141.411453 133.512802,140.866013 
	C134.633698,140.710236 135.808228,140.940506 137.353638,141.081451 
z"/>
<path fill="#F8F8F8" opacity="1.000000" stroke="none" 
	d="
M191.081268,150.856125 
	C190.113022,144.553009 192.290588,140.748505 197.037582,139.896637 
	C201.572418,139.082855 205.355118,141.440857 206.453827,145.908081 
	C207.470306,150.041031 205.737289,153.069519 202.177612,155.014664 
	C198.287552,157.140366 194.693314,155.807144 191.081268,150.856125 
z"/>
<path fill="#F5F5F5" opacity="1.000000" stroke="none" 
	d="
M165.334900,177.887497 
	C165.041443,178.845947 164.871857,179.477768 164.416473,181.174255 
	C162.371536,174.471558 160.615646,168.716217 158.734299,162.549683 
	C162.599548,162.549683 165.988358,162.549683 169.912292,162.549683 
	C168.414734,167.597366 166.936752,172.579102 165.334900,177.887497 
z"/>
<path fill="#FDFDFD" opacity="1.000000" stroke="none" 
	d="
M1479.135498,301.959717 
	C1481.561523,307.511383 1483.757324,312.777496 1486.307861,318.894531 
	C1468.035278,318.894531 1451.219116,318.894531 1434.111328,318.894531 
	C1436.035767,308.074097 1439.379272,298.098663 1450.832642,294.360626 
	C1461.397827,290.912415 1471.207397,292.870911 1479.135498,301.959717 
z"/>
<path fill="#FDFDFD" opacity="1.000000" stroke="none" 
	d="
M1314.034180,322.207550 
	C1315.002930,332.315552 1315.003540,341.905182 1311.340454,351.128021 
	C1307.254639,361.415283 1298.118286,367.656219 1287.015137,367.808258 
	C1276.085449,367.957947 1267.196777,362.157959 1263.185425,351.443604 
	C1258.158081,338.015778 1258.382202,324.290680 1263.233032,310.916168 
	C1267.485107,299.192749 1277.017578,293.970215 1290.158081,295.083374 
	C1301.057129,296.006714 1310.151001,304.495819 1312.941895,316.390503 
	C1313.358887,318.167969 1313.642578,319.976715 1314.034180,322.207550 
z"/>
<path fill="#FCFCFC" opacity="1.000000" stroke="none" 
	d="
M388.101501,115.120377 
	C392.086914,102.986420 395.978516,91.237656 400.252808,78.333466 
	C407.510345,101.222878 414.378143,122.883118 421.343842,144.852219 
	C406.935669,144.852219 393.019379,144.852219 378.453674,144.852219 
	C381.691040,134.908096 384.849365,125.206825 388.101501,115.120377 
z"/>
<path fill="#FDFDFD" opacity="1.000000" stroke="none" 
	d="
M797.838806,114.750641 
	C814.447998,103.917938 832.859375,110.124214 839.028015,128.526093 
	C843.991333,143.332016 843.566284,158.018524 836.338867,172.063583 
	C831.187500,182.074219 822.414978,185.882843 811.479553,185.031494 
	C801.091919,184.222794 793.352051,179.076721 789.739136,169.329758 
	C784.214417,154.425003 784.732605,139.275284 790.600098,124.546799 
	C792.013367,120.999199 795.194763,118.155968 797.838806,114.750641 
z"/>
<path fill="#FDFDFD" opacity="1.000000" stroke="none" 
	d="
M1133.126465,311.278259 
	C1138.878052,298.118805 1147.831421,292.414032 1161.337402,292.995789 
	C1173.840454,293.534332 1182.884888,300.113800 1186.680054,313.202759 
	C1191.038940,328.235962 1191.242065,343.463257 1183.808105,357.818054 
	C1178.484009,368.098572 1169.264160,371.783783 1158.089600,371.369019 
	C1146.201782,370.927765 1137.865601,365.067596 1133.647949,354.135040 
	C1128.257446,340.161530 1128.471802,325.884857 1133.126465,311.278259 
z"/>
<path fill="#FCFCFC" opacity="1.000000" stroke="none" 
	d="
M704.959656,133.936050 
	C690.695190,133.936050 676.924011,133.936050 663.159180,133.936050 
	C662.940674,118.996124 673.536133,107.674927 687.736694,107.378731 
	C702.376770,107.073372 712.462524,117.367073 713.205750,133.936050 
	C710.611450,133.936050 708.032227,133.936050 704.959656,133.936050 
z"/>
<path fill="#FDFDFD" opacity="1.000000" stroke="none" 
	d="
M1309.122314,139.213013 
	C1309.803223,149.063538 1309.445557,158.347992 1305.908569,167.198242 
	C1301.721924,177.674271 1294.155029,183.981918 1282.684814,184.844528 
	C1271.186523,185.709229 1261.193481,182.413452 1255.776855,171.619217 
	C1247.204834,154.536987 1247.267822,136.931305 1255.723877,119.807327 
	C1260.673706,109.783562 1269.976685,106.242378 1280.664795,106.479462 
	C1292.417480,106.740173 1301.085938,112.313759 1305.463379,123.302429 
	C1307.398193,128.159836 1307.932129,133.575348 1309.122314,139.213013 
z"/>
<path fill="#FDFDFD" opacity="1.000000" stroke="none" 
	d="
M965.850830,367.256958 
	C959.376831,361.942780 956.028992,355.207184 954.538635,347.499756 
	C951.960022,334.164124 952.016357,320.953369 958.185547,308.511902 
	C963.284668,298.228607 972.191650,293.833344 983.446594,293.957458 
	C994.560547,294.079987 1003.377625,298.719269 1007.880066,308.972198 
	C1014.887817,324.929993 1015.150513,341.516449 1007.841370,357.322571 
	C1000.530762,373.131989 981.888977,377.192322 965.850830,367.256958 
z"/>
<path fill="#FDFDFD" opacity="1.000000" stroke="none" 
	d="
M1055.368652,112.271286 
	C1062.932861,105.278221 1071.632324,105.695694 1080.355713,107.622208 
	C1089.157837,109.566109 1094.856201,115.550865 1097.968262,123.742172 
	C1103.231201,137.595215 1103.363525,151.790909 1098.686523,165.747391 
	C1093.030762,182.624771 1075.388062,189.547729 1058.981934,182.430145 
	C1051.995483,179.399231 1047.807007,174.387711 1045.590942,167.622116 
	C1040.331299,151.564468 1040.101440,135.603455 1048.285400,120.328987 
	C1049.876709,117.359001 1052.789062,115.096802 1055.368652,112.271286 
z"/>
<path fill="#FDFDFD" opacity="1.000000" stroke="none" 
	d="
M467.354919,298.240601 
	C486.379913,287.244263 506.251770,298.124939 507.074005,319.945251 
	C490.371033,319.945251 473.678101,319.945251 456.665588,319.945251 
	C457.598022,311.402740 460.545746,304.090454 467.354919,298.240601 
z"/>
</svg>